<svg xmlns="http://www.w3.org/2000/svg" width="1200" height="620" viewBox="0 0 1200 620">
  <defs>
    <linearGradient id="g1" x1="0" y1="0" x2="1" y2="1">
      <stop offset="0%" stop-color="#e0f2fe"/>
      <stop offset="100%" stop-color="#ecfeff"/>
    </linearGradient>
  </defs>
  <rect width="1200" height="620" fill="url(#g1)"/>
  <rect x="30" y="30" width="1140" height="560" rx="24" fill="#ffffff" stroke="#bfdbfe" stroke-width="3"/>
  <rect x="70" y="100" width="650" height="400" rx="16" fill="#0f172a" opacity="0.95"/>
  <text x="395" y="140" text-anchor="middle" fill="#93c5fd" font-size="28" font-family="Segoe UI">Map Canvas</text>
  <circle cx="220" cy="250" r="14" fill="#38bdf8"/>
  <circle cx="290" cy="320" r="14" fill="#22c55e"/>
  <circle cx="410" cy="210" r="14" fill="#f97316"/>
  <line x1="220" y1="250" x2="290" y2="320" stroke="#67e8f9" stroke-width="5"/>
  <line x1="290" y1="320" x2="410" y2="210" stroke="#86efac" stroke-width="5"/>
  <rect x="760" y="100" width="360" height="180" rx="14" fill="#f8fafc" stroke="#cbd5e1"/>
  <text x="940" y="145" text-anchor="middle" fill="#1e3a8a" font-size="24" font-family="Segoe UI">Context Panel</text>
  <text x="800" y="185" fill="#334155" font-size="19" font-family="Segoe UI">• Alerts Feed</text>
  <text x="800" y="218" fill="#334155" font-size="19" font-family="Segoe UI">• Incident Timeline</text>
  <text x="800" y="251" fill="#334155" font-size="19" font-family="Segoe UI">• Multi-Compare</text>
  <rect x="760" y="320" width="360" height="180" rx="14" fill="#f8fafc" stroke="#cbd5e1"/>
  <text x="940" y="365" text-anchor="middle" fill="#0f766e" font-size="24" font-family="Segoe UI">Bottom Dock</text>
  <text x="800" y="405" fill="#334155" font-size="19" font-family="Segoe UI">• Presets</text>
  <text x="800" y="438" fill="#334155" font-size="19" font-family="Segoe UI">• Smart Focus</text>
  <text x="800" y="471" fill="#334155" font-size="19" font-family="Segoe UI">• Replay / Cluster / PDF</text>
</svg>
